/* XPM */
static char * icon_xpm[] = {
"48 48 264 2",
"  	c None",
". 	c #B48484",
"+ 	c #B27575",
"@ 	c #B87272",
"# 	c #B25D5F",
"$ 	c #AA3434",
"% 	c #AD2D2D",
"& 	c #B02929",
"* 	c #B72222",
"= 	c #B42729",
"- 	c #D07E7E",
"; 	c #7E3B3B",
"> 	c #8C3939",
", 	c #901919",
"' 	c #8F1010",
") 	c #8D0808",
"! 	c #8C0404",
"~ 	c #8C0101",
"{ 	c #8C0000",
"] 	c #900505",
"^ 	c #900000",
"/ 	c #890000",
"( 	c #7E0000",
"_ 	c #851F1F",
": 	c #682222",
"< 	c #953B3B",
"[ 	c #B10606",
"} 	c #B20000",
"| 	c #B10000",
"1 	c #B00000",
"2 	c #AF0000",
"3 	c #AE0000",
"4 	c #AC0000",
"5 	c #A10000",
"6 	c #700000",
"7 	c #681313",
"8 	c #F3EDEE",
"9 	c #692121",
"0 	c #9C3C3C",
"a 	c #CC0606",
"b 	c #CC0000",
"c 	c #CB0000",
"d 	c #CA0000",
"e 	c #C90000",
"f 	c #C80000",
"g 	c #C70000",
"h 	c #B60000",
"i 	c #5E0000",
"j 	c #853434",
"k 	c #793030",
"l 	c #9E3838",
"m 	c #E30606",
"n 	c #E70000",
"o 	c #E60000",
"p 	c #E50000",
"q 	c #E40000",
"r 	c #E30000",
"s 	c #E20000",
"t 	c #E10000",
"u 	c #E00000",
"v 	c #BF0000",
"w 	c #6B0000",
"x 	c #A34949",
"y 	c #823434",
"z 	c #A03535",
"A 	c #F60505",
"B 	c #FC0000",
"C 	c #FB0101",
"D 	c #FB0303",
"E 	c #FB0404",
"F 	c #FA0404",
"G 	c #F70808",
"H 	c #F00D0D",
"I 	c #E00202",
"J 	c #D10000",
"K 	c #F50000",
"L 	c #F80000",
"M 	c #C60000",
"N 	c #C97676",
"O 	c #812A2A",
"P 	c #8E4949",
"Q 	c #C93A3A",
"R 	c #CF3D3D",
"S 	c #D24545",
"T 	c #DD3D3D",
"U 	c #E34343",
"V 	c #E55959",
"W 	c #EF5B5B",
"X 	c #FA5B5B",
"Y 	c #F75B5B",
"Z 	c #EA5A5A",
"` 	c #D12C2C",
" .	c #B60707",
"..	c #A00000",
"+.	c #780000",
"@.	c #860000",
"#.	c #B70000",
"$.	c #BD0000",
"%.	c #940000",
"&.	c #832A2D",
"*.	c #8F4949",
"=.	c #A96060",
"-.	c #C64141",
";.	c #E22626",
">.	c #F70C0C",
",.	c #FF0101",
"'.	c #FE0101",
").	c #F80A0A",
"!.	c #F32121",
"~.	c #F53A3A",
"{.	c #EF5252",
"].	c #DC3535",
"^.	c #C00000",
"/.	c #AB0000",
"(.	c #970000",
"_.	c #830000",
":.	c #710000",
"<.	c #8D0000",
"[.	c #B50000",
"}.	c #C20000",
"|.	c #9E0000",
"1.	c #AB7777",
"2.	c #8C4949",
"3.	c #A76262",
"4.	c #DE2828",
"5.	c #FF0000",
"6.	c #F70000",
"7.	c #F20000",
"8.	c #ED0000",
"9.	c #E20101",
"0.	c #D51B1B",
"a.	c #A20000",
"b.	c #8E0000",
"c.	c #7A0000",
"d.	c #EB0000",
"e.	c #DA0000",
"f.	c #AD1414",
"g.	c #7E4242",
"h.	c #935656",
"i.	c #B66161",
"j.	c #EB1D1D",
"k.	c #F90000",
"l.	c #F40000",
"m.	c #EE0000",
"n.	c #E90000",
"o.	c #DE0000",
"p.	c #D90000",
"q.	c #D53535",
"r.	c #B10C0C",
"s.	c #990000",
"t.	c #850000",
"u.	c #D80000",
"v.	c #F00000",
"w.	c #B30000",
"x.	c #DA9595",
"y.	c #793939",
"z.	c #AF5E5E",
"A.	c #C95E5E",
"B.	c #E91616",
"C.	c #EA0000",
"D.	c #E50202",
"E.	c #D50000",
"F.	c #CF0000",
"G.	c #CE3737",
"H.	c #B32D2D",
"I.	c #7F0000",
"J.	c #B90000",
"K.	c #D60000",
"L.	c #FE0000",
"M.	c #AC1616",
"N.	c #924545",
"O.	c #C86262",
"P.	c #D95959",
"Q.	c #E51010",
"R.	c #ED0202",
"S.	c #C73636",
"T.	c #B64747",
"U.	c #870000",
"V.	c #BB0000",
"W.	c #D30000",
"X.	c #F10000",
"Y.	c #000000",
"Z.	c #9E5656",
"`.	c #B15353",
" +	c #DD6464",
".+	c #F42A2A",
"++	c #F90101",
"@+	c #CA0101",
"#+	c #C30000",
"$+	c #BE0000",
"%+	c #C03434",
"&+	c #B65555",
"*+	c #7E0101",
"=+	c #820000",
"-+	c #B80000",
";+	c #CE0000",
">+	c #B22A2A",
",+	c #9A3535",
"'+	c #D15353",
")+	c #FD0707",
"!+	c #CF0101",
"~+	c #BA0000",
"{+	c #B40000",
"]+	c #B83333",
"^+	c #B05757",
"/+	c #750101",
"(+	c #8A0000",
"_+	c #AA0000",
":+	c #B52525",
"<+	c #D90101",
"[+	c #B13131",
"}+	c #A44B4B",
"|+	c #920000",
"1+	c #B12F2F",
"2+	c #C46666",
"3+	c #CE0C0C",
"4+	c #A90000",
"5+	c #A93030",
"6+	c #8E2E2E",
"7+	c #730000",
"8+	c #950000",
"9+	c #9E0202",
"0+	c #BA2929",
"a+	c #E10101",
"b+	c #A70000",
"c+	c #9F2B2B",
"d+	c #770C0C",
"e+	c #7C0000",
"f+	c #B84B4B",
"g+	c #B81616",
"h+	c #A40000",
"i+	c #891010",
"j+	c #720000",
"k+	c #910000",
"l+	c #C40B0B",
"m+	c #7A0101",
"n+	c #840000",
"o+	c #8B0000",
"p+	c #B95454",
"q+	c #A93A3A",
"r+	c #BF0202",
"s+	c #A30000",
"t+	c #770000",
"u+	c #810000",
"v+	c #860202",
"w+	c #971B1B",
"x+	c #750000",
"y+	c #C27171",
"z+	c #7B0909",
"A+	c #6D0000",
"B+	c #620000",
"C+	c #7F0A0A",
"D+	c #5D0202",
"E+	c #7D0000",
"F+	c #5B0000",
"G+	c #C37777",
"H+	c #790B0B",
"I+	c #660808",
"J+	c #CC8B8B",
"K+	c #A86969",
"L+	c #911A1A",
"M+	c #DEB7B7",
"N+	c #6F9CEE",
"O+	c #375CA1",
"                                                                                                ",
"                                                                                                ",
"                                                                                                ",
"                . + @ # $ % & * = -                                                             ",
"              ; > , ' ) ! ~ { ] ^ / ( _                                                         ",
"            : < [ } | | 1 1 2 3 3 4 5 6 7 8                                                     ",
"          9 0 a b b c c d e e f f g g h i j                                                     ",
"        k l m n o p p q q r r s t t u u v w x                                                   ",
"      y z A B B C D E E E F G H I J s K L M ( N                                                 ",
"    O P Q R S T U V W X Y Z `  ...{ +.@.#.t $.%.                                                ",
"  &.*.=.-.;.>.,.'.).!.~.{.].^./.(._.:.<.[.$.}.|.                                                ",
"  1.2.3.4.5.5.B 6.7.8.n 9.0.#.a.b.c.(.d.5.5.e.f.                                                ",
"    g.h.i.j.k.l.m.n.q o.p.q.r.s.t.a.u.v.5.6.w.x.                                                ",
"      y.z.A.B.C.8.D.e.E.F.G.H.^ I.J.K.8.L.K.M.                                                  ",
"        N.O.P.Q.B R.J b M S.T.U.( V.W.C.X.1     Y.Y.Y.Y.Y.Y.Y.Y.Y.Y.Y.                          ",
"        Z.`. +.+5.++@+#+$+%+&+*+=+-+F.o ;+>+    Y.Y.Y.Y.Y.Y.Y.Y.Y.Y.Y.Y.                        ",
"          ,+'+)+5.5.!+~+{+]+^+/+(+[.b E._+                          Y.Y.                        ",
"            :+6.5.5.<+| /.[+}+6 |+| f w.1+                          Y.Y.                        ",
"            2+3+L.5.t 4+a.5+6+7+8+3 h 9+                            Y.Y.                        ",
"              0+a+5.s b+s.c+d+e+%._+s.f+                            Y.Y.                        ",
"                g+X.r h+^ i+j+=+k+(.k+                              Y.Y.                        ",
"                  l+u a.t.m+c.n+o+=+p+                              Y.Y.                        ",
"                  q+r+s++.t+_.u+c.v+                                Y.Y.                        ",
"                    w+8+:.x+{ +.w y+                          Y.Y.Y.Y.Y.Y.Y.                    ",
"                      z+A+t+%.B+C+                              Y.Y.Y.Y.Y.                      ",
"                        D+E+k+F+G+                                Y.Y.Y.                        ",
"                          j+e+H+                                    Y.                          ",
"                          I+6 J+                                                                ",
"                          K+L+                Y.Y.Y.Y.Y.Y.Y.Y.Y.Y.Y.Y.Y.Y.Y.Y.Y.Y.Y.Y.Y.Y.      ",
"                            M+              Y.Y.Y.Y.Y.Y.Y.Y.Y.Y.Y.Y.Y.Y.Y.Y.Y.Y.Y.Y.Y.Y.Y.Y.    ",
"                                            Y.Y.N+N+N+N+N+N+N+N+N+N+N+N+N+N+N+N+N+N+N+N+Y.Y.    ",
"                                            Y.Y.N+N+N+N+N+N+N+N+N+N+N+N+N+N+N+N+N+N+N+N+Y.Y.    ",
"                                            Y.Y.N+N+N+N+N+N+N+N+N+N+N+N+N+N+N+N+N+N+N+N+Y.Y.    ",
"            Y.                  Y.Y.Y.Y.    Y.Y.N+N+N+N+N+N+N+N+N+N+N+N+N+N+N+N+N+N+N+N+Y.Y.    ",
"            Y.                  Y.          Y.Y.Y.Y.Y.Y.Y.Y.Y.Y.Y.Y.Y.Y.Y.Y.Y.Y.Y.Y.Y.Y.Y.Y.    ",
"            Y.    Y.Y.Y.Y.Y.    Y.          Y.Y.Y.Y.Y.Y.Y.Y.Y.Y.Y.Y.Y.Y.Y.Y.Y.Y.Y.Y.Y.Y.Y.Y.    ",
"            Y.    Y.      Y.    Y.          Y.Y.O+O+O+O+O+O+O+O+O+O+O+O+O+O+O+O+O+O+O+O+Y.Y.    ",
"    Y.Y.Y.Y.Y.    Y.      Y.    Y.          Y.Y.O+O+O+O+O+O+O+O+O+O+O+O+O+O+O+O+O+O+O+O+Y.Y.    ",
"    Y.      Y.    Y.Y.Y.Y.Y.    Y.Y.Y.      Y.Y.O+O+O+O+O+O+O+O+O+O+O+O+O+O+O+O+O+O+O+O+Y.Y.    ",
"    Y.      Y.    Y.            Y.          Y.Y.O+O+O+O+O+O+O+O+O+O+O+O+O+O+O+O+O+O+O+O+Y.Y.    ",
"    Y.      Y.    Y.            Y.          Y.Y.O+O+O+O+O+O+O+O+O+O+O+O+O+O+O+O+O+O+O+O+Y.Y.    ",
"    Y.Y.Y.Y.Y.    Y.Y.Y.Y.Y.    Y.          Y.Y.O+O+O+O+O+O+O+O+O+O+O+O+O+O+O+O+O+O+O+O+Y.Y.    ",
"                                Y.          Y.Y.O+O+O+O+O+O+O+O+O+O+O+O+O+O+O+O+O+O+O+O+Y.Y.    ",
"                                Y.          Y.Y.Y.Y.Y.Y.Y.Y.Y.Y.Y.Y.Y.Y.Y.Y.Y.Y.Y.Y.Y.Y.Y.Y.    ",
"                            Y.Y.Y.            Y.Y.Y.Y.Y.Y.Y.Y.Y.Y.Y.Y.Y.Y.Y.Y.Y.Y.Y.Y.Y.Y.      ",
"                                                                                                ",
"                                                                                                ",
"                                                                                                "};
