/* XPM */
static char * logo_v3_xpm[] = {
"38 38 99 2",
"  	c None",
". 	c #000000",
"+ 	c #C64442",
"@ 	c #BA1A25",
"# 	c #A72C35",
"$ 	c #CB4249",
"% 	c #312021",
"& 	c #BC1924",
"* 	c #AE7275",
"= 	c #A33038",
"- 	c #9A383F",
"; 	c #933F45",
"> 	c #BD1723",
", 	c #7D5356",
"' 	c #8D454A",
") 	c #BA1B26",
"! 	c #AA2933",
"~ 	c #43292B",
"{ 	c #B91B26",
"] 	c #953D44",
"^ 	c #B0242E",
"/ 	c #983A41",
"( 	c #9D353D",
"_ 	c #BE1723",
": 	c #B71E28",
"< 	c #AF242E",
"[ 	c #9B373E",
"} 	c #B3212C",
"| 	c #AB2831",
"1 	c #AC2831",
"2 	c #89484D",
"3 	c #563335",
"4 	c #A42F37",
"5 	c #993940",
"6 	c #CE3F47",
"7 	c #9C373E",
"8 	c #211415",
"9 	c #9E353C",
"0 	c #201515",
"a 	c #B61E29",
"b 	c #943E44",
"c 	c #AB2832",
"d 	c #A92A33",
"e 	c #A0333B",
"f 	c #3F2C2D",
"g 	c #C82E38",
"h 	c #BB1A25",
"i 	c #B4202A",
"j 	c #AA2932",
"k 	c #BA1A26",
"l 	c #100B0B",
"m 	c #43282A",
"n 	c #953D43",
"o 	c #924046",
"p 	c #BD1823",
"q 	c #A0323A",
"r 	c #A62D35",
"s 	c #A82B34",
"t 	c #8E4349",
"u 	c #2F2122",
"v 	c #B81C27",
"w 	c #A62D36",
"x 	c #7B464A",
"y 	c #973B42",
"z 	c #624143",
"A 	c #9F333B",
"B 	c #C3141F",
"C 	c #B51F29",
"D 	c #805154",
"E 	c #B2222C",
"F 	c #AC2731",
"G 	c #AD2730",
"H 	c #88494D",
"I 	c #864B4F",
"J 	c #8D4449",
"K 	c #A13239",
"L 	c #9F343B",
"M 	c #924045",
"N 	c #973B41",
"O 	c #9C363D",
"P 	c #B71D28",
"Q 	c #88494E",
"R 	c #A82C34",
"S 	c #B1232D",
"T 	c #963C42",
"U 	c #854C50",
"V 	c #BE1622",
"W 	c #A72C34",
"X 	c #884A4E",
"Y 	c #C11E29",
"Z 	c #1F1617",
"` 	c #89484C",
" .	c #A23139",
"..	c #9D363D",
"+.	c #89494D",
"@.	c #9B383F",
"#.	c #754D4F",
"$.	c #923F45",
"%.	c #3F2B2D",
". . . . . . . . . . . . . . . . . . . . . . . . . . . . . . . . . . . . . . ",
". + + + + + + + + + + + + @ . . . . . . . . . . . . . # + + + + + + + + + . ",
". + + + . . + + + + + + . . . . . . . . . . . . . . . . . $ + + + + + + + . ",
". + + + + . + + + + + % . . . . . & + + + + + * = . . . . . - + + + + + + . ",
". + + + . . + + + + . . . . ; + + + + + + + + + + + > , . . . ' + + + + + . ",
". + + + + . + + + . . . . ) + + + + + + + + + + + + + + ! . . . ~ + + + + . ",
". + . + . . + + . . . . + + + + + + + + + + + + + + + + + { . . . ] + + + . ",
". + + + + + + ^ . . . + + + + + + / . . . . . . ( + + + + + _ . . . : + + . ",
". + + + + + + . . . < + + + + [ . . . . . . . . . . } + + + + | . . . + + . ",
". + + + + + 1 . . 2 + + + + 3 . . . . . . . . . . . . 4 + + + + . . . 5 + . ",
". + + + + + . . . 6 + + + . . . . 7 + + + + + + 8 . . . 9 + + + + . . . + . ",
". + + + + + . . 0 + + + a . . . < + + + + + + + + ; . . . _ + + + b . . 1 . ",
". + + + + c . . d + + + . . . e + + + + + + + + + + . . . . + + + + . . f . ",
". + + + + . . . g + + + . . . + + + + ^ # # + + + + + . . . h + + + . . . . ",
". + + + + . . . + + + . . . . + + + 2 . . . . i + + + j . . b + + + . . . . ",
". + + + + . . . + + + . . . . + + k . . . . . . + + + + . . . + + + . . . . ",
". + + + + . . . + + + . . . . + + . . . . . . . ( + + + . . . + + + . . . . ",
". + + + + . . . + + + . . . . . . . . . . . . . l + + + m . . + + + . . . . ",
". + + + + . . . + + + n . . . . . . . . . . . . . + + + . . . + + + . . . . ",
". + + + + . . . . . . . . . . . . . . . . . . . o + + + . . . + + + . . . . ",
". + + + + . . . . . . . . . . . . . . . . . . . p + + + . . . + + + . . . . ",
". + + q . . . . . . . e + r . . . . . . . . . s + + + k . . t + + + . . . . ",
". u . . . . . . . . + + + + v . . . . . . . w + + + + x . . i + + + . . . . ",
". . . . . . . . . . < + + + + + y . . z A B + + + + C . . . + + + + . . D . ",
". . . . + + + E . . . v + + + + + + + + + + + + + + . . . F + + + [ . . G . ",
". . . . + + + + / . . . j + + + + + + + + + + + + . . . . + + + + . . . + . ",
". . . . H + + + + I . . . J + + + + + + + + + K . . . . + + + + L . . M + . ",
". + . . . a + + + + N . . . . . O E P i s Q . . . . . + + + + 6 . . . + + . ",
". + R . . . _ + + + + S . . . . . . . . . . . . . T + + + + + . . . = + + . ",
". + + U . . . V + + + + + W . . . . . . . . . X k + + + + + + . . . + + + . ",
". + + + . . . . Y + + + + + + + G . . . . ^ + + + + + + + + . . . + + + + . ",
". + + + + . . . . 9 + + + + + + + + + + + + + + + + + + Z . . . + + + + + . ",
". + + + + + u . . . . i + + + + + + + + + + + + + + - . . . . + + + + + + . ",
". + + + + + + 5 . . . . f A Y + + + + + + + + + N . . . . Z + + + + + + + . ",
". + + + + + + + g . . . . . . . ` /  .d ..+.. . . . . . @.+ + + + + + + + . ",
". + + + + + + + + + ^ #.. . . . . . . . . . . . . . $.+ + + + + + + + + + . ",
". + + + + + + + + + + + + / %.. . . . . . . . z ..+ + + + + + + + + + + + . ",
". . . . . . . . . . . . . . . . . . . . . . . . . . . . . . . . . . . . . . "};
